<?xml version="1.0" encoding="UTF-8"?>
<svg xmlns="http://www.w3.org/2000/svg" xmlns:xlink="http://www.w3.org/1999/xlink" viewBox="0 0 48 48" width="48px" height="48px">
<g id="surface71628904">
<path style="fill-rule:nonzero;fill:rgb(0%,78.431374%,32.549021%);fill-opacity:1;stroke-width:11;stroke-linecap:butt;stroke-linejoin:round;stroke:rgb(100%,100%,100%);stroke-opacity:1;stroke-miterlimit:10;" d="M 82.068817 11.76913 C 84.496025 10.414063 87.503976 10.414063 89.931184 11.76913 C 101.948097 18.529574 138.132855 38.825798 150.149768 45.586243 C 152.591867 46.94131 154.080951 49.457863 154.080951 52.197778 C 154.080951 65.688886 154.080951 106.311115 154.080951 119.802222 C 154.080951 122.527247 152.591867 125.058691 150.149768 126.413758 C 138.132855 133.174203 101.948097 153.470427 89.931184 160.230871 C 87.489085 161.585938 84.496025 161.585938 82.068817 160.230871 C 70.051904 153.470427 33.867146 133.174203 21.850233 126.413758 C 19.408134 125.058691 17.919049 122.542138 17.919049 119.802222 C 17.919049 106.311115 17.919049 65.688886 17.919049 52.197778 C 17.919049 49.472754 19.408134 46.94131 21.850233 45.586243 C 33.867146 38.825798 70.051904 18.529574 82.068817 11.76913 Z M 82.068817 11.76913 " transform="matrix(0.262326,0,0,0.262326,1.44,1.44)"/>
<path style="fill-rule:nonzero;fill:rgb(41.176471%,94.117647%,68.235296%);fill-opacity:1;stroke-width:11;stroke-linecap:butt;stroke-linejoin:round;stroke:rgb(100%,100%,100%);stroke-opacity:1;stroke-miterlimit:10;" d="M 19.006081 123.28668 C 18.053067 122.006068 17.919049 120.799909 17.919049 119.161916 C 17.919049 105.745263 17.919049 65.361287 17.919049 51.944634 C 17.919049 49.2345 19.408134 46.717947 21.835342 45.36288 C 33.822474 38.661999 69.873213 18.470011 81.845454 11.754239 C 84.272662 10.399172 87.563539 10.428954 89.990747 11.784021 C 101.962988 18.484902 137.894601 38.51309 149.881733 45.213971 C 150.849638 45.764933 151.579289 46.42013 152.249377 47.283799 Z M 19.006081 123.28668 " transform="matrix(0.262326,0,0,0.262326,1.44,1.44)"/>
<path style="fill-rule:nonzero;fill:rgb(100%,100%,100%);fill-opacity:1;stroke-width:11;stroke-linecap:butt;stroke-linejoin:round;stroke:rgb(100%,100%,100%);stroke-opacity:1;stroke-miterlimit:10;" d="M 136.167263 86 C 136.167263 113.696975 113.696975 136.167263 86 136.167263 C 58.303026 136.167263 35.832738 113.696975 35.832738 86 C 35.832738 58.303026 58.303026 35.832738 86 35.832738 C 113.696975 35.832738 136.167263 58.303026 136.167263 86 Z M 111.076186 86 C 111.076186 72.166404 99.833597 60.923815 86 60.923815 C 72.166404 60.923815 60.923815 72.166404 60.923815 86 C 60.923815 99.833597 72.166404 111.076186 86 111.076186 C 99.833597 111.076186 111.076186 99.833597 111.076186 86 Z M 111.076186 86 " transform="matrix(0.262326,0,0,0.262326,1.44,1.44)"/>
<path style="fill-rule:nonzero;fill:rgb(0%,90.196079%,46.27451%);fill-opacity:1;stroke-width:11;stroke-linecap:butt;stroke-linejoin:round;stroke:rgb(100%,100%,100%);stroke-opacity:1;stroke-miterlimit:10;" d="M 152.234486 47.313581 C 154.080951 49.05581 154.05117 51.661708 154.05117 53.716645 C 154.05117 67.311988 153.932043 105.983517 154.080951 119.59375 C 154.095842 121.008381 153.634226 122.497466 152.919465 123.62917 L 84.540697 86 Z M 152.234486 47.313581 " transform="matrix(0.262326,0,0,0.262326,1.44,1.44)"/>
<path style="fill-rule:nonzero;fill:rgb(100%,100%,100%);fill-opacity:1;stroke-width:11;stroke-linecap:butt;stroke-linejoin:round;stroke:rgb(100%,100%,100%);stroke-opacity:1;stroke-miterlimit:10;" d="M 121.827377 71.660115 L 125.416072 71.660115 L 125.416072 100.339886 L 121.827377 100.339886 Z M 132.578569 71.660115 L 136.167263 71.660115 L 136.167263 100.339886 L 132.578569 100.339886 Z M 132.578569 71.660115 " transform="matrix(0.262326,0,0,0.262326,1.44,1.44)"/>
<path style="fill-rule:nonzero;fill:rgb(100%,100%,100%);fill-opacity:1;stroke-width:11;stroke-linecap:butt;stroke-linejoin:round;stroke:rgb(100%,100%,100%);stroke-opacity:1;stroke-miterlimit:10;" d="M 114.66488 89.588694 L 143.32976 89.588694 L 143.32976 93.162498 L 114.66488 93.162498 Z M 114.66488 78.837503 L 143.32976 78.837503 L 143.32976 82.411306 L 114.66488 82.411306 Z M 114.66488 78.837503 " transform="matrix(0.262326,0,0,0.262326,1.44,1.44)"/>
<path style=" stroke:none;fill-rule:nonzero;fill:rgb(60.784316%,34.901962%,71.372551%);fill-opacity:1;" d="M 22.96875 4.527344 C 23.605469 4.171875 24.394531 4.171875 25.03125 4.527344 C 28.183594 6.300781 37.675781 11.625 40.828125 13.398438 C 41.46875 13.753906 41.859375 14.414062 41.859375 15.132812 C 41.859375 18.671875 41.859375 29.328125 41.859375 32.867188 C 41.859375 33.582031 41.46875 34.246094 40.828125 34.601562 C 37.675781 36.375 28.183594 41.699219 25.03125 43.472656 C 24.390625 43.828125 23.605469 43.828125 22.96875 43.472656 C 19.816406 41.699219 10.324219 36.375 7.171875 34.601562 C 6.53125 34.246094 6.140625 33.585938 6.140625 32.867188 C 6.140625 29.328125 6.140625 18.671875 6.140625 15.132812 C 6.140625 14.417969 6.53125 13.753906 7.171875 13.398438 C 10.324219 11.625 19.816406 6.300781 22.96875 4.527344 Z M 22.96875 4.527344 "/>
<path style=" stroke:none;fill-rule:nonzero;fill:rgb(60.784316%,34.901962%,71.372551%);fill-opacity:1;" d="M 6.425781 33.78125 C 6.175781 33.445312 6.140625 33.128906 6.140625 32.699219 C 6.140625 29.179688 6.140625 18.585938 6.140625 15.066406 C 6.140625 14.355469 6.53125 13.695312 7.167969 13.339844 C 10.3125 11.582031 19.769531 6.285156 22.910156 4.523438 C 23.546875 4.167969 24.410156 4.175781 25.046875 4.53125 C 28.1875 6.289062 37.613281 11.542969 40.757812 13.300781 C 41.011719 13.445312 41.203125 13.617188 41.378906 13.84375 Z M 6.425781 33.78125 "/>
<path style=" stroke:none;fill-rule:nonzero;fill:rgb(100%,100%,100%);fill-opacity:1;" d="M 24 10.839844 C 16.734375 10.839844 10.839844 16.734375 10.839844 24 C 10.839844 31.265625 16.734375 37.160156 24 37.160156 C 31.265625 37.160156 37.160156 31.265625 37.160156 24 C 37.160156 16.734375 31.265625 10.839844 24 10.839844 Z M 24 30.578125 C 20.371094 30.578125 17.421875 27.628906 17.421875 24 C 17.421875 20.371094 20.371094 17.421875 24 17.421875 C 27.628906 17.421875 30.578125 20.371094 30.578125 24 C 30.578125 27.628906 27.628906 30.578125 24 30.578125 Z M 24 30.578125 "/>
<path style=" stroke:none;fill-rule:nonzero;fill:rgb(60.784316%,34.901962%,71.372551%);fill-opacity:1;" d="M 41.375 13.851562 C 41.859375 14.308594 41.851562 14.992188 41.851562 15.53125 C 41.851562 19.097656 41.820312 29.242188 41.859375 32.8125 C 41.863281 33.183594 41.742188 33.574219 41.554688 33.871094 L 23.617188 24 Z M 41.375 13.851562 "/>
<path style=" stroke:none;fill-rule:nonzero;fill:rgb(100%,100%,100%);fill-opacity:1;" d="M 33.398438 20.238281 L 34.339844 20.238281 L 34.339844 27.761719 L 33.398438 27.761719 Z M 36.21875 20.238281 L 37.160156 20.238281 L 37.160156 27.761719 L 36.21875 27.761719 Z M 36.21875 20.238281 "/>
<path style=" stroke:none;fill-rule:nonzero;fill:rgb(100%,100%,100%);fill-opacity:1;" d="M 31.519531 24.941406 L 39.039062 24.941406 L 39.039062 25.878906 L 31.519531 25.878906 Z M 31.519531 22.121094 L 39.039062 22.121094 L 39.039062 23.058594 L 31.519531 23.058594 Z M 31.519531 22.121094 "/>
</g>
</svg>
