<?xml version="1.0" encoding="UTF-8"?>
<svg xmlns="http://www.w3.org/2000/svg" xmlns:xlink="http://www.w3.org/1999/xlink" viewBox="0 0 64 64" width="64px" height="64px">
<g id="surface54651489">
<path style=" stroke:none;fill-rule:nonzero;fill:rgb(100%,100%,100%);fill-opacity:1;" d="M 13 6 C 9.148438 6 6 9.148438 6 13 L 6 51 C 6 54.851562 9.148438 58 13 58 L 51 58 C 54.851562 58 58 54.851562 58 51 L 58 13 C 58 9.148438 54.851562 6 51 6 Z M 13 8 L 51 8 C 53.769531 8 56 10.230469 56 13 L 56 51 C 56 53.769531 53.769531 56 51 56 L 13 56 C 10.230469 56 8 53.769531 8 51 L 8 13 C 8 10.230469 10.230469 8 13 8 Z M 16 17 C 14.355469 17 13 18.355469 13 20 L 13 38 C 13 39.644531 14.355469 41 16 41 L 48 41 C 49.644531 41 51 39.644531 51 38 L 51 20 C 51 18.355469 49.644531 17 48 17 Z M 16.414062 19 L 47.585938 19 L 38.410156 28.175781 C 38.320312 28.238281 38.242188 28.316406 38.179688 28.40625 L 34.828125 31.757812 C 33.257812 33.328125 30.742188 33.328125 29.171875 31.757812 L 25.824219 28.410156 C 25.761719 28.320312 25.683594 28.242188 25.59375 28.179688 Z M 15 20.414062 L 23.585938 29 L 15 37.585938 Z M 49 20.414062 L 49 37.585938 L 40.414062 29 Z M 25 30.414062 L 27.757812 33.171875 C 30.09375 35.507812 33.90625 35.507812 36.242188 33.171875 L 39 30.414062 L 47.585938 39 L 16.414062 39 Z M 12 48 C 11.449219 48 11 48.449219 11 49 L 11 51 C 11 51.550781 11.449219 52 12 52 C 12.550781 52 13 51.550781 13 51 L 13 49 C 13 48.449219 12.550781 48 12 48 Z M 17 48 C 16.449219 48 16 48.449219 16 49 L 16 51 C 16 51.550781 16.449219 52 17 52 C 17.550781 52 18 51.550781 18 51 L 18 49 C 18 48.449219 17.550781 48 17 48 Z M 22 48 C 21.449219 48 21 48.449219 21 49 L 21 51 C 21 51.550781 21.449219 52 22 52 C 22.550781 52 23 51.550781 23 51 L 23 49 C 23 48.449219 22.550781 48 22 48 Z M 27 48 C 26.449219 48 26 48.449219 26 49 L 26 51 C 26 51.550781 26.449219 52 27 52 C 27.550781 52 28 51.550781 28 51 L 28 49 C 28 48.449219 27.550781 48 27 48 Z M 32 48 C 31.449219 48 31 48.449219 31 49 L 31 51 C 31 51.550781 31.449219 52 32 52 C 32.550781 52 33 51.550781 33 51 L 33 49 C 33 48.449219 32.550781 48 32 48 Z M 37 48 C 36.449219 48 36 48.449219 36 49 L 36 51 C 36 51.550781 36.449219 52 37 52 C 37.550781 52 38 51.550781 38 51 L 38 49 C 38 48.449219 37.550781 48 37 48 Z M 42 48 C 41.449219 48 41 48.449219 41 49 L 41 51 C 41 51.550781 41.449219 52 42 52 C 42.550781 52 43 51.550781 43 51 L 43 49 C 43 48.449219 42.550781 48 42 48 Z M 47 48 C 46.449219 48 46 48.449219 46 49 L 46 51 C 46 51.550781 46.449219 52 47 52 C 47.550781 52 48 51.550781 48 51 L 48 49 C 48 48.449219 47.550781 48 47 48 Z M 52 48 C 51.449219 48 51 48.449219 51 49 L 51 51 C 51 51.550781 51.449219 52 52 52 C 52.550781 52 53 51.550781 53 51 L 53 49 C 53 48.449219 52.550781 48 52 48 Z M 52 48 "/>
</g>
</svg>
