<svg xmlns="http://www.w3.org/2000/svg"  viewBox="0 0 100 100" width="100px" height="100px"><circle cx="52" cy="52" r="44" opacity=".35"/><circle cx="50" cy="50" r="44" fill="#f2f2f2"/><path fill="#2785bd" d="M50,12.5c-20.711,0-37.5,16.789-37.5,37.5S29.289,87.5,50,87.5S87.5,70.711,87.5,50 S70.711,12.5,50,12.5z"/><path fill="#40396e" d="M50,89c-21.505,0-39-17.495-39-39s17.495-39,39-39s39,17.495,39,39S71.505,89,50,89z M50,14 c-19.851,0-36,16.149-36,36s16.149,36,36,36s36-16.149,36-36S69.851,14,50,14z"/><g><path fill="#f2f2f2" d="M49.998,18.094c-17.602,0-31.915,14.314-31.915,31.906S32.401,81.91,50,81.91 c17.601,0,31.917-14.318,31.917-31.91S67.601,18.094,49.998,18.094z M21.639,50c0-4.12,0.881-8.014,2.453-11.544l13.532,37.07 C28.163,70.928,21.639,61.232,21.639,50z M50.002,78.363c-2.783,0-5.467-0.401-8.012-1.156l8.509-24.732l8.718,23.89 c0.059,0.136,0.138,0.264,0.209,0.39C56.47,77.788,53.301,78.363,50.002,78.363z M53.714,35.97 c1.705-0.083,3.248-0.269,3.248-0.269c1.526-0.184,1.342-2.434-0.184-2.333c0,0-4.589,0.355-7.559,0.355 c-2.781,0-7.475-0.355-7.475-0.355c-1.524-0.105-1.702,2.234-0.174,2.333c0,0,1.45,0.188,2.976,0.269l4.614,12.848l-6.204,18.615 L32.442,35.918c1.709-0.083,3.24-0.269,3.24-0.269c1.535-0.184,1.349-2.434-0.175-2.333c0,0-4.6,0.355-7.559,0.355 c-0.539,0-0.679,0.062-1.083-0.069c5.139-7.238,13.584-11.964,23.137-11.964c7.387,0,14.11,2.808,19.152,7.442 c-0.126-0.004-0.239-0.014-0.365-0.014c-2.783,0-5.391,2.437-5.391,5.034c0,2.331,1.353,4.295,2.794,6.651 c1.076,1.883,2.96,4.316,2.96,7.821c0,2.437-0.718,5.486-2.161,9.173l-2.834,9.441L53.714,35.97z M64.265,74.525l8.659-25.057 c1.618-4.052,2.161-7.284,2.161-10.17c0-1.039-0.066-2.012-0.191-2.916c2.209,4.052,3.469,8.688,3.469,13.618 C78.362,60.462,72.699,69.611,64.265,74.525z"/></g></svg>