<?xml version="1.0" encoding="UTF-8"?>
<svg xmlns="http://www.w3.org/2000/svg" xmlns:xlink="http://www.w3.org/1999/xlink" viewBox="0 0 48 48" width="48px" height="48px">
<g id="surface71802331">
<path style=" stroke:none;fill-rule:nonzero;fill:rgb(100%,100%,100%);fill-opacity:1;" d="M 40.953125 1.5 C 40.886719 1.5 40.824219 1.507812 40.761719 1.523438 L 23.035156 6.128906 C 22.839844 6.175781 22.675781 6.300781 22.574219 6.472656 L 20.152344 10.621094 L 15.265625 10.582031 C 15.066406 10.582031 14.875 10.65625 14.734375 10.796875 L 1.726562 23.460938 C 1.582031 23.605469 1.5 23.796875 1.5 24 C 1.5 24.203125 1.582031 24.398438 1.726562 24.539062 L 14.738281 37.164062 C 14.878906 37.300781 15.066406 37.375 15.265625 37.375 L 20.152344 37.339844 L 22.574219 41.484375 C 22.671875 41.65625 22.835938 41.78125 23.03125 41.832031 L 40.757812 46.476562 C 41.15625 46.578125 41.5625 46.34375 41.671875 45.949219 L 46.433594 28.703125 C 46.488281 28.503906 46.457031 28.292969 46.355469 28.117188 L 43.902344 24.019531 L 46.355469 19.921875 C 46.460938 19.746094 46.488281 19.535156 46.433594 19.339844 L 41.671875 2.050781 C 41.582031 1.726562 41.289062 1.503906 40.953125 1.5 Z M 40.421875 3.164062 L 44.902344 19.429688 L 42.6875 23.128906 L 39.109375 10.648438 C 39.027344 10.359375 38.78125 10.148438 38.484375 10.109375 C 38.1875 10.074219 37.894531 10.214844 37.742188 10.472656 L 29.941406 23.597656 C 29.800781 23.832031 29.800781 24.128906 29.941406 24.363281 L 37.742188 37.488281 C 37.894531 37.746094 38.1875 37.886719 38.484375 37.847656 C 38.78125 37.808594 39.027344 37.601562 39.109375 37.3125 L 42.671875 24.886719 L 44.902344 28.613281 L 40.421875 44.835938 L 23.710938 40.460938 L 21.53125 36.726562 L 34.445312 39.953125 C 34.738281 40.027344 35.046875 39.917969 35.226562 39.671875 C 35.40625 39.429688 35.425781 39.101562 35.269531 38.84375 L 27.46875 25.71875 C 27.332031 25.488281 27.085938 25.351562 26.824219 25.351562 L 11.214844 25.351562 C 10.914062 25.351562 10.636719 25.535156 10.523438 25.816406 C 10.40625 26.097656 10.472656 26.421875 10.6875 26.632812 L 19.96875 35.839844 L 15.558594 35.871094 L 3.324219 24 L 15.5625 12.085938 L 19.929688 12.121094 L 10.652344 21.285156 C 10.433594 21.5 10.371094 21.820312 10.484375 22.101562 C 10.601562 22.382812 10.871094 22.566406 11.175781 22.570312 L 26.78125 22.570312 C 27.046875 22.570312 27.292969 22.429688 27.425781 22.203125 L 35.230469 9.078125 C 35.386719 8.816406 35.371094 8.488281 35.1875 8.246094 C 35.007812 8 34.699219 7.890625 34.402344 7.964844 L 21.558594 11.1875 L 23.710938 7.5 Z M 10.152344 9.035156 C 9.964844 9.035156 9.773438 9.105469 9.625 9.253906 C 9.335938 9.542969 9.339844 10.011719 9.632812 10.308594 L 10.691406 11.367188 C 10.984375 11.660156 11.457031 11.664062 11.746094 11.375 C 12.039062 11.082031 12.035156 10.613281 11.742188 10.316406 L 10.683594 9.257812 C 10.535156 9.113281 10.34375 9.039062 10.152344 9.035156 Z M 33.019531 9.859375 L 26.355469 21.070312 L 13.003906 21.070312 L 21.402344 12.773438 Z M 7.527344 11.660156 C 7.339844 11.660156 7.148438 11.730469 7 11.878906 C 6.710938 12.167969 6.714844 12.636719 7.007812 12.933594 L 8.066406 13.992188 C 8.359375 14.285156 8.832031 14.289062 9.125 14 C 9.414062 13.707031 9.410156 13.238281 9.117188 12.941406 L 8.058594 11.882812 C 7.910156 11.738281 7.71875 11.664062 7.53125 11.660156 Z M 38.144531 12.730469 L 41.371094 23.980469 L 38.144531 35.230469 L 31.457031 23.980469 Z M 4.902344 14.285156 C 4.714844 14.285156 4.523438 14.355469 4.375 14.503906 C 4.085938 14.792969 4.089844 15.261719 4.382812 15.558594 L 5.441406 16.617188 C 5.734375 16.910156 6.207031 16.914062 6.5 16.625 C 6.789062 16.332031 6.785156 15.863281 6.492188 15.566406 L 5.433594 14.507812 C 5.285156 14.363281 5.09375 14.289062 4.902344 14.285156 Z M 2.277344 16.910156 C 2.089844 16.910156 1.898438 16.980469 1.75 17.128906 C 1.460938 17.417969 1.464844 17.886719 1.757812 18.183594 L 2.816406 19.242188 C 3.109375 19.535156 3.582031 19.539062 3.875 19.25 C 4.164062 18.957031 4.160156 18.488281 3.867188 18.191406 L 2.808594 17.132812 C 2.660156 16.988281 2.46875 16.914062 2.277344 16.910156 Z M 13.039062 26.851562 L 26.394531 26.851562 L 33.0625 38.0625 L 21.402344 35.144531 Z M 3.347656 28.535156 C 3.15625 28.539062 2.964844 28.613281 2.816406 28.757812 L 1.757812 29.816406 C 1.464844 30.109375 1.460938 30.582031 1.75 30.875 C 2.042969 31.164062 2.511719 31.160156 2.808594 30.867188 L 3.867188 29.808594 C 4.160156 29.515625 4.164062 29.042969 3.875 28.753906 C 3.726562 28.605469 3.539062 28.535156 3.347656 28.535156 Z M 5.972656 31.160156 C 5.78125 31.164062 5.589844 31.238281 5.441406 31.382812 L 4.382812 32.441406 C 4.089844 32.734375 4.085938 33.207031 4.375 33.5 C 4.667969 33.789062 5.136719 33.785156 5.433594 33.492188 L 6.492188 32.433594 C 6.785156 32.140625 6.789062 31.667969 6.5 31.378906 C 6.351562 31.230469 6.164062 31.160156 5.972656 31.160156 Z M 8.597656 33.785156 C 8.40625 33.789062 8.214844 33.863281 8.066406 34.007812 L 7.007812 35.066406 C 6.714844 35.359375 6.710938 35.832031 7 36.125 C 7.292969 36.414062 7.761719 36.410156 8.058594 36.117188 L 9.117188 35.058594 C 9.410156 34.765625 9.414062 34.292969 9.121094 34.003906 C 8.976562 33.855469 8.789062 33.785156 8.597656 33.785156 Z M 11.222656 36.410156 C 11.03125 36.410156 10.839844 36.484375 10.691406 36.632812 L 9.632812 37.691406 C 9.339844 37.984375 9.335938 38.457031 9.628906 38.75 C 9.917969 39.039062 10.386719 39.035156 10.683594 38.742188 L 11.742188 37.683594 C 12.035156 37.390625 12.039062 36.917969 11.75 36.628906 C 11.601562 36.480469 11.414062 36.410156 11.222656 36.410156 Z M 11.222656 36.410156 "/>
</g>
</svg>
